<svg xmlns="http://www.w3.org/2000/svg" viewBox="0 0 500 500"><g id="freepik--Shadow--inject-10"><ellipse cx="250" cy="416.24" rx="193.89" ry="11.32" style="fill:#f5f5f5"></ellipse></g><g id="freepik--character-2--inject-10"><path d="M349.25,163.43l-9.92-4s-13.09,23.87-16.84,25.08c-5.1,1.64-15.66,6.2-21.92,7-.85,1-2.24,4.11-2.11,5.24,8.41,2.81,26.89-.92,30.85-3.86C338.32,186.22,349.25,163.43,349.25,163.43Z" style="fill:#e58a7b"></path><path d="M352.3,158c1.85,6.83-8.17,20.57-8.17,20.57L331,171.21s2.46-5.65,5.46-11.4C341.27,150.52,350.19,150.21,352.3,158Z" style="fill:#407BFF"></path><path d="M352.3,158c1.85,6.83-8.17,20.57-8.17,20.57L331,171.21s2.46-5.65,5.46-11.4C341.27,150.52,350.19,150.21,352.3,158Z" style="opacity:0.2"></path><path d="M336.21,174.15l5.17,2.9.91-15.87C339.28,163.49,337.16,170.45,336.21,174.15Z" style="opacity:0.2"></path><path d="M343.66,152.86s-10.22,22.74-4.26,65.08h40.27c.64-6.18-1.48-36.34,6.19-65.46a102.44,102.44,0,0,0-13.38-1.71,147.88,147.88,0,0,0-17.11,0A78.93,78.93,0,0,0,343.66,152.86Z" style="fill:#407BFF"></path><path d="M343.66,152.86s-10.22,22.74-4.26,65.08h40.27c.64-6.18-1.48-36.34,6.19-65.46a102.44,102.44,0,0,0-13.38-1.71,147.88,147.88,0,0,0-17.11,0A78.93,78.93,0,0,0,343.66,152.86Z" style="opacity:0.2"></path><path d="M334.32,417.14c-.06,1.08,15.21,1.95,34.1,1.95s34.27-.87,34.33-1.95-15.2-1.94-34.1-1.94S334.39,416.07,334.32,417.14Z" style="fill:#e8ecf1;mix-blend-mode:multiply"></path><rect x="357.82" y="390.96" width="7.68" height="17.09" transform="matrix(0.93, -0.36, 0.36, 0.93, -119.46, 156.75)" style="fill:#e58a7b"></rect><polygon points="393.05 409.45 385.52 409.45 382.76 392.02 390.29 392.02 393.05 409.45" style="fill:#e58a7b"></polygon><path d="M385,408.58h8.46a.62.62,0,0,1,.61.52l1.09,6.69a1.18,1.18,0,0,1-1.18,1.34c-2.95-.05-4.37-.23-8.09-.23-2.29,0-7,.24-10.18.24s-3.39-3.12-2.08-3.41c5.88-1.27,8.16-3,10.12-4.68A1.89,1.89,0,0,1,385,408.58Z" style="fill:#263238"></path><path d="M360,406l8-2.34a.65.65,0,0,1,.75.32l3,6a1.15,1.15,0,0,1-.75,1.59c-2.91.8-4.86,1.29-8.5,2.35-2.51.73-5.07,1.92-7.55,2.71-1.72.55-5.76.57-7.85.57-3.09,0-3.78-3.26-2.45-3.41,3.35-.37,3.8-.2,5.65-1.13a25.69,25.69,0,0,0,8.08-5.58A3.75,3.75,0,0,1,360,406Z" style="fill:#263238"></path><path d="M301.83,191.47,293.55,188l-3.41,9.18a34,34,0,0,0,10.24,0Z" style="fill:#e58a7b"></path><polygon points="287.39 187.76 287.17 193.86 290.14 197.16 293.55 187.98 287.39 187.76" style="fill:#e58a7b"></polygon><rect x="356.33" y="391.24" width="7.68" height="8.81" transform="translate(-118.31 156.23) rotate(-21.11)" style="fill:#cf6f64"></rect><polygon points="390.29 392.02 382.76 392.02 384.19 401.01 391.72 401.01 390.29 392.02" style="fill:#cf6f64"></polygon><path d="M338.12,206.49c.15,1.81.32,3.66.54,5.56l29.94-9.72A21.44,21.44,0,0,0,380.12,194c.12-2.67.27-5.48.5-8.41.1-1.42.22-2.88.35-4.36s.31-3.12.5-4.7Z" style="opacity:0.2"></path><path d="M347.9,173.69l-1-.12c.59-5,4.32-8.94,8.25-8.84l0,1C351.71,165.66,348.43,169.21,347.9,173.69Z" style="fill:#fff"></path><path d="M353.23,182.92h-.17l0-1c3.44.13,6.67-3.46,7.2-7.93l1,.12C360.73,179,357.12,182.92,353.23,182.92Z" style="fill:#fff"></path><path d="M371.92,131.5c-1.41,5.51-3.07,15.6.56,19.27,0,0-2.54,5.59-12.77,5.59-9.35,0-4.34-5.59-4.34-5.59,6.22-1.46,6.33-6,5.51-10.3Z" style="fill:#e58a7b"></path><path d="M367.42,135.16l-6.53,5.31a17.6,17.6,0,0,1,.35,3c1.91,1.9,5.74-2.91,6.13-5.37A8,8,0,0,0,367.42,135.16Z" style="fill:#cf6f64"></path><path d="M349.66,131.43a6.61,6.61,0,0,0,4.25,3.14c2.4.53,3.6-1.68,2.94-3.9-.59-2-2.56-4.69-5-4.23A3.34,3.34,0,0,0,349.66,131.43Z" style="fill:#cf6f64"></path><path d="M353.63,113.8c-3.74,1.71-5.06,16.57-.36,18.77S360.71,110.55,353.63,113.8Z" style="fill:#263238"></path><path d="M373.06,123.21c-.9,7.46-1,11.85-5,15.67a9.62,9.62,0,0,1-16.36-5.1c-1.21-6.7.46-17.77,7.94-20.74A9.63,9.63,0,0,1,373.06,123.21Z" style="fill:#e58a7b"></path><path d="M360.77,117.66c5.54-1.41,9.61-2.37,8.15,2.24-1.93,6.16-4.25,12.12-1.14,12.39,1.9.17,10.3-3.39,9.23-7-.93-3.14,3-4,3.7-5.59,2.59-5.76-4.82-5-3.5-8.5s-6-9.14-10-6.33c-6.51,4.54-17.68,4.47-11.81-3,4.21-5.33-3.3-4.24-3.3-4.24s4.54,2.69-3.1,6.85C340.92,108.92,348.33,120.85,360.77,117.66Z" style="fill:#263238"></path><path d="M376,131.43a7.75,7.75,0,0,1-4.61,3.14c-2.47.53-3.42-1.68-2.49-3.9.83-2,3.11-4.69,5.47-4.23S377.27,129.47,376,131.43Z" style="fill:#e58a7b"></path><path d="M339.4,217.94s-6.76,60.5-7.29,83.46c-.54,23.88,22.91,98.39,22.91,98.39l12-5s-14-68.08-12-91.53c2.12-25.57,10.88-85.28,10.88-85.28Z" style="fill:#407BFF"></path><path d="M356.2,234.55c-5.39,11.18-1.76,33.29,1.16,46.39,1.11-9.25,2.43-19.29,3.68-28.58C360.92,238.08,359.81,227.05,356.2,234.55Z" style="opacity:0.2"></path><path d="M366.49,390.83c.06,0,1.42,3.82,1.42,3.82l-13.84,5.82-2.18-4.06Z" style="fill:#407BFF"></path><path d="M353.69,217.94s5.17,57.54,8.59,79.09c3.76,23.61,18.5,102.24,18.5,102.24h13.79s-8.26-76.72-9.82-100.1c-1.7-25.36-5.08-81.23-5.08-81.23Z" style="fill:#407BFF"></path><path d="M394.78,395.68c.06,0,.46,3.85.46,3.85H380.08L379,395.11Z" style="fill:#407BFF"></path><path d="M389.5,391.12a.13.13,0,0,1-.13-.11c-.08-.7-7.53-70-8.93-91-1.52-22.78-4.58-73.31-4.61-73.82a.12.12,0,0,1,.12-.13h0a.13.13,0,0,1,.13.12c0,.51,3.09,51,4.61,73.82,1.4,21,8.85,90.25,8.92,91a.12.12,0,0,1-.11.14Z" style="opacity:0.2"></path><path d="M361.62,125.29c0,.61-.38,1.1-.78,1.1s-.69-.49-.65-1.1.38-1.1.78-1.1S361.66,124.69,361.62,125.29Z" style="fill:#263238"></path><path d="M354.76,125.29c0,.61-.39,1.1-.78,1.1s-.69-.49-.66-1.1.39-1.1.79-1.1S354.8,124.69,354.76,125.29Z" style="fill:#263238"></path><path d="M356.92,125.6a23.3,23.3,0,0,1-3.2,5.19c1,1,2.87.54,2.87.54Z" style="fill:#df5753"></path><path d="M357.1,133.88a.17.17,0,0,1-.17-.18.19.19,0,0,1,.19-.18,5.12,5.12,0,0,0,4-1.88.19.19,0,0,1,.25,0,.18.18,0,0,1,0,.25A5.46,5.46,0,0,1,357.1,133.88Z" style="fill:#263238"></path><path d="M362.84,123.45a.34.34,0,0,1-.31,0,2.84,2.84,0,0,0-2.55-.27.34.34,0,0,1-.46-.16.37.37,0,0,1,.19-.48,3.51,3.51,0,0,1,3.23.3.35.35,0,0,1,.09.49A.4.4,0,0,1,362.84,123.45Z" style="fill:#263238"></path><path d="M352.11,121.45a.29.29,0,0,1-.14-.08.35.35,0,0,1,0-.5,3.74,3.74,0,0,1,3.08-1.24.34.34,0,0,1,.28.41.39.39,0,0,1-.42.3h0a3,3,0,0,0-2.43,1A.37.37,0,0,1,352.11,121.45Z" style="fill:#263238"></path><path d="M389.73,162.32l-10.4-2.77s-10.2,25.11-13.81,26.74c-4.9,2.24-17.31,10-22.59,13.67-.29,1.25-.06,4.56.6,5.47,9-1.64,26.23-8.27,29.83-11.64C381.57,186.1,389.73,162.32,389.73,162.32Z" style="fill:#e58a7b"></path><path d="M382.47,409.9a2.19,2.19,0,0,1-1.43-.39,1,1,0,0,1-.31-.94.59.59,0,0,1,.34-.5c.84-.43,3.19,1.06,3.46,1.23a.16.16,0,0,1,.07.18.21.21,0,0,1-.14.15A9.48,9.48,0,0,1,382.47,409.9Zm-1-1.56a.53.53,0,0,0-.23,0,.22.22,0,0,0-.12.21.68.68,0,0,0,.2.65c.39.35,1.37.39,2.66.14A6.63,6.63,0,0,0,381.44,408.34Z" style="fill:#407BFF"></path><path d="M384.41,409.63a.13.13,0,0,1-.08,0c-.75-.42-2.16-2.07-1.95-2.91a.61.61,0,0,1,.59-.47.94.94,0,0,1,.75.23c.83.71.88,2.89.88,3a.15.15,0,0,1-.09.16A.17.17,0,0,1,384.41,409.63Zm-1.34-3.05H383c-.23,0-.26.13-.27.18-.12.49.77,1.74,1.51,2.33a4.14,4.14,0,0,0-.75-2.36A.61.61,0,0,0,383.07,406.58Z" style="fill:#407BFF"></path><path d="M355.92,408.65a2.87,2.87,0,0,1-1.89,0,.94.94,0,0,1-.49-.76.59.59,0,0,1,.21-.53c.8-.72,4.07,0,4.44.14a.16.16,0,0,1,.12.16.19.19,0,0,1-.11.18A14.64,14.64,0,0,1,355.92,408.65Zm-1.63-1.19a.69.69,0,0,0-.31.15.21.21,0,0,0-.08.21.63.63,0,0,0,.32.51c.53.28,1.76.06,3.35-.61A9.84,9.84,0,0,0,354.29,407.46Z" style="fill:#407BFF"></path><path d="M358.17,407.84h-.08c-1-.18-3-1.33-3.06-2.19,0-.2.09-.48.57-.64a1.28,1.28,0,0,1,1,.06c1.08.53,1.65,2.45,1.68,2.54a.18.18,0,0,1-.05.17A.18.18,0,0,1,358.17,407.84Zm-2.37-2.53-.1,0c-.31.11-.31.24-.31.28,0,.52,1.45,1.47,2.46,1.79a3.78,3.78,0,0,0-1.4-2A.92.92,0,0,0,355.8,405.31Z" style="fill:#407BFF"></path><path d="M343.78,199.37l-10.43,4.8-1.21,3,3.85,2.59s7.2-.78,9.25-5.41Z" style="fill:#e58a7b"></path><path d="M344.22,205.6a14.06,14.06,0,0,0-1.94-5.66l1.65-1.24a16.09,16.09,0,0,1,2.32,6.55Z" style="fill:#263238"></path><path d="M346,200.79a2,2,0,1,1-2.44-.78A1.82,1.82,0,0,1,346,200.79Z" style="fill:#263238"></path><polygon points="326.3 208.05 327.69 209.45 337.05 205.45 333.35 204.17 326.3 208.05" style="fill:#e58a7b"></polygon><path d="M366.49,390.83c.06,0,1.42,3.82,1.42,3.82l-13.84,5.82-2.18-4.06Z" style="opacity:0.2"></path><path d="M394.78,395.68c.06,0,.46,3.85.46,3.85H380.08L379,395.11Z" style="opacity:0.2"></path><path d="M392.44,159.44c2.75,8.87-8,21-8,21l-14.85-6.06a154.08,154.08,0,0,1,6.08-15.07C380.23,149.48,389.66,150.49,392.44,159.44Z" style="fill:#407BFF"></path><path d="M392.44,159.44c2.75,8.87-8,21-8,21l-14.85-6.06a154.08,154.08,0,0,1,6.08-15.07C380.23,149.48,389.66,150.49,392.44,159.44Z" style="opacity:0.2"></path></g><g id="freepik--Screen--inject-10"><rect x="238.49" y="70.57" width="6.39" height="1.03" style="fill:#407BFF"></rect><rect x="319.14" y="119.42" width="17.18" height="1.03" transform="translate(193.16 441.94) rotate(-87.42)" style="fill:#407BFF"></rect><polygon points="325.61 75.19 207.61 75.19 196.63 320.91 314.63 320.91 325.61 75.19" style="fill:#407BFF"></polygon><polygon points="322.09 78.57 204.09 78.57 193.11 324.29 311.11 324.29 322.09 78.57" style="fill:#fafafa;opacity:0.56"></polygon><polygon points="318.57 81.94 200.57 81.94 189.58 327.66 307.58 327.66 318.57 81.94" style="fill:#407BFF;opacity:0.07"></polygon><polygon points="305.14 189.11 204.42 189.11 203.58 207.91 304.3 207.91 305.14 189.11" style="fill:#fff"></polygon><polygon points="259.81 175.39 205.03 175.39 204.66 183.8 259.44 183.8 259.81 175.39" style="fill:#407BFF"></polygon><polygon points="302.87 239.85 202.15 239.85 201.31 258.65 302.03 258.65 302.87 239.85" style="fill:#fff"></polygon><polygon points="284.4 284.04 216.67 284.04 215.66 306.57 283.39 306.57 284.4 284.04" style="fill:#407BFF;opacity:0.47000000000000003"></polygon><path d="M279.87,310.07H212.14a.18.18,0,0,1-.09,0,.14.14,0,0,1,0-.09l1-22.54a.11.11,0,0,1,.12-.11h67.73a.09.09,0,0,1,.08,0,.08.08,0,0,1,0,.08L280,310A.13.13,0,0,1,279.87,310.07Zm-67.61-.24h67.49l1-22.3H213.26Z" style="fill:#fff"></path><polygon points="247.98 226.13 202.76 226.13 202.39 234.55 247.6 234.55 247.98 226.13" style="fill:#407BFF"></polygon><path d="M283.11,128.38a26.53,26.53,0,0,1-5.57,15.05A26.88,26.88,0,0,1,256.34,154a24.31,24.31,0,0,1-24.46-25.62,27,27,0,0,1,26.75-25.62A24.29,24.29,0,0,1,283.11,128.38Z" style="fill:#fff"></path><path d="M285.52,108.12a7,7,0,0,1-1.48,4,7.17,7.17,0,0,1-5.64,2.81,6.48,6.48,0,0,1-5.38-2.81,6.61,6.61,0,0,1-1.12-4,7.18,7.18,0,0,1,7.11-6.8A6.46,6.46,0,0,1,285.52,108.12Z" style="fill:#407BFF"></path><path d="M215.27,198.51a3.19,3.19,0,0,1-3.15,3,2.85,2.85,0,0,1-2.88-3,3.17,3.17,0,0,1,3.15-3A2.86,2.86,0,0,1,215.27,198.51Z" style="fill:#263238"></path><path d="M228.75,198.51a3.18,3.18,0,0,1-3.15,3,2.85,2.85,0,0,1-2.87-3,3.17,3.17,0,0,1,3.14-3A2.85,2.85,0,0,1,228.75,198.51Z" style="fill:#263238"></path><path d="M242.24,198.51a3.18,3.18,0,0,1-3.15,3,2.86,2.86,0,0,1-2.88-3,3.18,3.18,0,0,1,3.15-3A2.85,2.85,0,0,1,242.24,198.51Z" style="fill:#263238"></path><path d="M213,249.25a3.19,3.19,0,0,1-3.15,3,2.86,2.86,0,0,1-2.88-3,3.18,3.18,0,0,1,3.15-3A2.86,2.86,0,0,1,213,249.25Z" style="fill:#263238"></path><path d="M226.48,249.25a3.18,3.18,0,0,1-3.14,3,2.85,2.85,0,0,1-2.88-3,3.18,3.18,0,0,1,3.15-3A2.85,2.85,0,0,1,226.48,249.25Z" style="fill:#263238"></path><path d="M240,249.25a3.18,3.18,0,0,1-3.15,3,2.87,2.87,0,0,1-2.88-3,3.19,3.19,0,0,1,3.15-3A2.85,2.85,0,0,1,240,249.25Z" style="fill:#263238"></path><path d="M253.46,249.25a3.19,3.19,0,0,1-3.15,3,2.87,2.87,0,0,1-2.88-3,3.19,3.19,0,0,1,3.15-3A2.86,2.86,0,0,1,253.46,249.25Z" style="fill:#263238"></path><path d="M267,249.25a3.19,3.19,0,0,1-3.15,3,2.85,2.85,0,0,1-2.88-3,3.18,3.18,0,0,1,3.15-3A2.86,2.86,0,0,1,267,249.25Z" style="fill:#263238"></path><ellipse cx="257.87" cy="119.82" rx="10.6" ry="10.13" transform="translate(-10.27 214.43) rotate(-44.36)" style="fill:#407BFF"></ellipse><path d="M277.54,143.43A26.88,26.88,0,0,1,256.34,154a24.27,24.27,0,0,1-20.24-10.57c4.86-4.84,12.55-8,21.07-8S273.11,138.59,277.54,143.43Z" style="fill:#407BFF"></path><ellipse cx="257.87" cy="119.82" rx="10.6" ry="10.13" transform="translate(-10.27 214.43) rotate(-44.36)" style="fill:#fff;opacity:0.1"></ellipse><path d="M277.54,143.43A26.88,26.88,0,0,1,256.34,154a24.27,24.27,0,0,1-20.24-10.57c4.86-4.84,12.55-8,21.07-8S273.11,138.59,277.54,143.43Z" style="fill:#fff;opacity:0.1"></path></g></svg>